<?xml version="1.0" standalone="no"?>
<!DOCTYPE svg PUBLIC "-//W3C//DTD SVG 20010904//EN"
 "http://www.w3.org/TR/2001/REC-SVG-20010904/DTD/svg10.dtd">
<svg version="1.0" xmlns="http://www.w3.org/2000/svg"
 width="44.000000pt" height="22.000000pt" viewBox="0 0 94.000000 82.000000"
 preserveAspectRatio="xMidYMid meet">

<g transform="translate(0.000000,82.000000) scale(0.100000,-0.100000)"
fill="#000000" stroke="none">
<path d="M0 410 l0 -410 470 0 470 0 0 410 0 410 -470 0 -470 0 0 -410z m448
203 l14 -43 59 0 c54 0 66 -4 119 -42 56 -39 61 -46 85 -118 l25 -76 -23 -69
c-22 -65 -28 -74 -87 -118 -62 -47 -64 -47 -140 -47 -77 0 -77 0 -141 49 -64
48 -65 49 -88 132 -13 46 -38 133 -57 193 -18 61 -32 111 -30 113 7 7 223 71
235 70 8 -1 21 -21 29 -44z"/>
<path d="M303 608 c-69 -22 -93 -34 -93 -46 1 -9 13 -55 28 -101 l27 -84 18
54 c15 48 24 60 76 97 33 23 65 42 71 42 12 0 12 0 -1 39 -6 17 -16 31 -22 30
-7 -1 -54 -14 -104 -31z"/>
<path d="M368 517 c-50 -37 -60 -50 -77 -102 l-20 -61 21 -67 c11 -37 25 -67
30 -67 6 0 56 14 110 31 70 21 98 34 95 44 -3 7 -23 69 -43 139 -21 69 -43
126 -49 126 -5 0 -36 -20 -67 -43z"/>
<path d="M507 418 c24 -78 40 -145 36 -148 -4 -4 -55 -21 -112 -39 -58 -17
-106 -33 -108 -34 -1 -2 23 -22 54 -45 54 -39 61 -42 125 -42 64 0 69 2 130
48 59 44 64 51 82 115 l19 69 -21 67 c-20 62 -26 70 -81 109 -53 37 -67 42
-114 42 l-54 0 44 -142z m141 -19 l3 -24 -13 25 c-9 16 -22 25 -38 25 -16 0
-29 -9 -38 -25 l-13 -25 3 25 c4 34 45 54 73 36 11 -7 21 -24 23 -37z"/>
</g>
</svg>
